<svg width="96" height="24" fill="none" xmlns="http://www.w3.org/2000/svg"><g clip-path="url(#clip0_24_2202)" fill="#8C4AFF"><path d="M49.536 23.413h-3.963V7.164h3.861v2.169c1.027-1.688 2.912-2.697 4.92-2.636 4.065 0 6.013 2.87 6.013 6.44v10.278h-3.962v-9.61c0-2-.924-3.604-3.417-3.604-2.256 0-3.45 1.701-3.45 3.837v9.375h-.002zM87.527 23.88c-3.963 0-6.287-2.87-6.287-6.473V7.163h3.963v9.543c0 2 .957 3.704 3.348 3.704s3.486-1.5 3.486-3.638v-9.61H96v13.28c0 1.333-.068 2.37 0 2.97h-3.759c-.034-.6-.034-1.203 0-1.802-.819 1.469-2.767 2.269-4.715 2.269M19.12 6.695c-2.212-.12-4.303.99-5.4 2.87-.917-1.852-2.884-2.983-4.987-2.87-1.98-.051-3.846.91-4.92 2.537V7.164H0l.02 16.25h3.932V13.77c0-2.069 1.333-3.604 3.45-3.604 2.257 0 3.212 1.469 3.212 3.336v9.911h3.892V13.77c-.127-1.861 1.313-3.47 3.22-3.596.077-.005.153-.008.23-.008 2.221 0 3.212 1.434 3.212 3.336v9.911h3.827V12.866c0-4.304-2.87-6.172-5.877-6.172M78.874 0L74.84 1.287v7.778c-.513-1.034-1.98-2.335-4.886-2.335-4.685 0-7.926 3.837-7.926 8.506 0 4.904 3.212 8.578 7.994 8.578 1.972.086 3.838-.87 4.885-2.503v2.102h3.963c-.035-.266 0-1.5 0-2.97V0h.003zm-8.405 20.41c-2.7 0-4.475-2.07-4.475-5.173s1.914-5.075 4.51-5.075c2.595 0 4.373 1.935 4.373 5.039 0 3.103-1.81 5.206-4.408 5.206M35.29 6.751c-4.954 0-8.608 3.638-8.608 8.609s3.656 8.642 8.608 8.642c4.953 0 8.645-3.638 8.645-8.642 0-5.005-3.657-8.609-8.645-8.609zm4.28 10.232a1.851 1.851 0 01-1.331 1.727l-6.978 2.23a.166.166 0 01-.208-.104.184.184 0 01-.008-.05v-7.02a1.848 1.848 0 011.33-1.727l6.98-2.228c.087-.027.18.02.208.104a.184.184 0 01.008.05v7.02l-.002-.002z"/></g><defs><clipPath id="clip0_24_2202"><path fill="#fff" d="M0 0h96v24H0z"/></clipPath></defs></svg>